{
  "accessors": [
    {
      "bufferView": 2,
      "componentType": 5126,
      "count": 110,
      "max": [
        0.007679104804992676,
        0.004207727964967489,
        0.015924356877803802
      ],
      "min": [
        -0.007679103873670101,
        -0.004207727964967489,
        -0.01592435874044895
      ],
      "type": "VEC3"
    },
    {
      "bufferView": 2,
      "byteOffset": 1320,
      "componentType": 5126,
      "count": 110,
      "max": [
        0.999782383441925,
        0.9977545142173767,
        0.8914693593978882
      ],
      "min": [
        -0.9954624772071838,
        -0.9968013763427734,
        -1.0
      ],
      "type": "VEC3"
    },
    {
      "bufferView": 1,
      "componentType": 5126,
      "count": 110,
      "max": [
        0.7139115929603577,
        0.552734375
      ],
      "min": [
        0.001953125,
        0.001953125
      ],
      "type": "VEC2"
    },
    {
      "bufferView": 1,
      "byteOffset": 880,
      "componentType": 5126,
      "count": 110,
      "max": [
        0.7139115929603577,
        0.552734375
      ],
      "min": [
        0.001953125,
        0.001953125
      ],
      "type": "VEC2"
    },
    {
      "bufferView": 1,
      "byteOffset": 1760,
      "componentType": 5126,
      "count": 110,
      "max": [
        0.7139115929603577,
        0.552734375
      ],
      "min": [
        0.001953125,
        0.001953125
      ],
      "type": "VEC2"
    },
    {
      "bufferView": 0,
      "componentType": 5125,
      "count": 300,
      "type": "SCALAR"
    },
    {
      "bufferView": 2,
      "byteOffset": 2640,
      "componentType": 5126,
      "count": 589,
      "max": [
        0.025398265570402145,
        0.02505062334239483,
        0.03334673121571541
      ],
      "min": [
        -0.025398265570402145,
        -0.02505062334239483,
        -0.033346738666296005
      ],
      "type": "VEC3"
    },
    {
      "bufferView": 2,
      "byteOffset": 9708,
      "componentType": 5126,
      "count": 589,
      "max": [
        0.9988738894462585,
        0.9998148083686829,
        0.9998797178268433
      ],
      "min": [
        -0.9998469352722168,
        -0.9973760843276978,
        -0.9987523555755615
      ],
      "type": "VEC3"
    },
    {
      "bufferView": 1,
      "byteOffset": 2640,
      "componentType": 5126,
      "count": 589,
      "max": [
        0.5146425366401672,
        0.5000485777854919
      ],
      "min": [
        0.0009765625,
        0.0011532902717590332
      ],
      "type": "VEC2"
    },
    {
      "bufferView": 1,
      "byteOffset": 7352,
      "componentType": 5126,
      "count": 589,
      "max": [
        0.5146425366401672,
        0.5000485777854919
      ],
      "min": [
        0.0009765625,
        0.0011532902717590332
      ],
      "type": "VEC2"
    },
    {
      "bufferView": 1,
      "byteOffset": 12064,
      "componentType": 5126,
      "count": 589,
      "max": [
        0.5146425366401672,
        0.5000485777854919
      ],
      "min": [
        0.0009765625,
        0.0011532902717590332
      ],
      "type": "VEC2"
    },
    {
      "bufferView": 0,
      "byteOffset": 1200,
      "componentType": 5125,
      "count": 1584,
      "type": "SCALAR"
    }
  ],
  "asset": {
    "extras": {
      "author": "science.tle999 (https://sketchfab.com/science.tle999)",
      "license": "CC-BY-4.0 (http://creativecommons.org/licenses/by/4.0/)",
      "source": "https://sketchfab.com/3d-models/bee-hive-527579e0357d4eb397145e6851b5ebec",
      "title": "Bee Hive"
    },
    "generator": "Sketchfab-13.37.1",
    "version": "2.0"
  },
  "bufferViews": [
    {
      "buffer": 0,
      "byteLength": 7536,
      "name": "floatBufferViews",
      "target": 34963
    },
    {
      "buffer": 0,
      "byteLength": 16776,
      "byteOffset": 7536,
      "byteStride": 8,
      "name": "floatBufferViews",
      "target": 34962
    },
    {
      "buffer": 0,
      "byteLength": 16776,
      "byteOffset": 24312,
      "byteStride": 12,
      "name": "floatBufferViews",
      "target": 34962
    }
  ],
  "buffers": [
    {
      "byteLength": 41088,
      "uri": "scene.bin"
    }
  ],
  "extensionsRequired": [
    "KHR_materials_pbrSpecularGlossiness"
  ],
  "extensionsUsed": [
    "KHR_materials_pbrSpecularGlossiness"
  ],
  "images": [
    {
      "uri": "textures/material_diffuse.png"
    },
    {
      "uri": "textures/material_specularGlossiness.png"
    },
    {
      "uri": "textures/material_1_diffuse.png"
    },
    {
      "uri": "textures/material_1_specularGlossiness.png"
    }
  ],
  "materials": [
    {
      "doubleSided": true,
      "extensions": {
        "KHR_materials_pbrSpecularGlossiness": {
          "diffuseFactor": [
            1.0,
            1.0,
            1.0,
            1.0
          ],
          "diffuseTexture": {
            "index": 0
          },
          "glossinessFactor": 1.0,
          "specularFactor": [
            1.0,
            1.0,
            1.0
          ],
          "specularGlossinessTexture": {
            "index": 1
          }
        }
      },
      "name": "material"
    },
    {
      "doubleSided": true,
      "extensions": {
        "KHR_materials_pbrSpecularGlossiness": {
          "diffuseFactor": [
            1.0,
            1.0,
            1.0,
            1.0
          ],
          "diffuseTexture": {
            "index": 2
          },
          "glossinessFactor": 1.0,
          "specularFactor": [
            1.0,
            1.0,
            1.0
          ],
          "specularGlossinessTexture": {
            "index": 3
          }
        }
      },
      "name": "material_1"
    }
  ],
  "meshes": [
    {
      "name": "Object_0",
      "primitives": [
        {
          "attributes": {
            "NORMAL": 1,
            "POSITION": 0,
            "TEXCOORD_0": 2,
            "TEXCOORD_1": 3,
            "TEXCOORD_2": 4
          },
          "indices": 5,
          "material": 0,
          "mode": 4
        }
      ]
    },
    {
      "name": "Object_1",
      "primitives": [
        {
          "attributes": {
            "NORMAL": 7,
            "POSITION": 6,
            "TEXCOORD_0": 8,
            "TEXCOORD_1": 9,
            "TEXCOORD_2": 10
          },
          "indices": 11,
          "material": 1,
          "mode": 4
        }
      ]
    }
  ],
  "nodes": [
    {
      "children": [
        1
      ],
      "matrix": [
        1.0,
        0.0,
        0.0,
        0.0,
        0.0,
        2.220446049250313e-16,
        -1.0,
        0.0,
        0.0,
        1.0,
        2.220446049250313e-16,
        0.0,
        0.0,
        0.0,
        0.0,
        1.0
      ],
      "name": "Sketchfab_model"
    },
    {
      "children": [
        2
      ],
      "name": "root"
    },
    {
      "children": [
        3
      ],
      "matrix": [
        1.0,
        0.0,
        0.0,
        0.0,
        0.0,
        2.220446049250313e-16,
        1.0,
        0.0,
        0.0,
        -1.0,
        2.220446049250313e-16,
        0.0,
        0.0,
        0.0,
        0.0,
        1.0
      ],
      "name": "GLTF_SceneRootNode"
    },
    {
      "children": [
        4
      ],
      "name": "root_1"
    },
    {
      "children": [
        5
      ],
      "matrix": [
        0.0010000000474974513,
        0.0,
        0.0,
        0.0,
        0.0,
        0.0010000000474974513,
        0.0,
        0.0,
        0.0,
        0.0,
        0.0010000000474974513,
        0.0,
        0.0,
        0.15678253769874573,
        -0.1318994164466858,
        1.0
      ],
      "name": "node_id38_3"
    },
    {
      "children": [
        6
      ],
      "matrix": [
        4262.25,
        0.0,
        -0.0,
        -0.0,
        0.0,
        0.0,
        4262.25048828125,
        0.0,
        0.0,
        4262.25048828125,
        0.0,
        0.0,
        7.688222103752196e-05,
        -34.57999038696289,
        255.99951171875,
        1.0
      ],
      "name": "node_id31_0"
    },
    {
      "children": [
        7
      ],
      "matrix": [
        1.0,
        0.0,
        -0.0,
        0.0,
        0.0,
        1.0,
        5.269042982977683e-24,
        0.0,
        0.0,
        -5.269042982977683e-24,
        1.0,
        0.0,
        0.0,
        0.0,
        0.0,
        1.0
      ],
      "name": "node_id32_4"
    },
    {
      "children": [
        8,
        10
      ],
      "matrix": [
        1.0,
        7.341775187796884e-09,
        3.033877963972636e-32,
        0.0,
        -7.341775187796884e-09,
        1.0,
        5.269042982977683e-24,
        0.0,
        8.345349396134471e-33,
        -5.269042982977683e-24,
        1.0,
        0.0,
        0.0,
        0.0,
        0.0,
        1.0
      ],
      "name": "node_id33_5"
    },
    {
      "children": [
        9
      ],
      "matrix": [
        1.2464756965637207,
        7.269172722008668e-16,
        5.1883155993438406e-33,
        0.0,
        -7.269172722008668e-16,
        1.2464756965637207,
        6.567734022431292e-24,
        0.0,
        -5.188311769185488e-33,
        -6.567734022431292e-24,
        1.2464756965637207,
        0.0,
        0.001994328573346138,
        -0.0007354036206379533,
        0.04832592234015465,
        1.0
      ],
      "name": "node_id34_6"
    },
    {
      "mesh": 0,
      "name": "Object_9"
    },
    {
      "children": [
        11
      ],
      "matrix": [
        1.2464756965637207,
        7.269172722008668e-16,
        5.1883155993438406e-33,
        0.0,
        -7.269172722008668e-16,
        1.2464756965637207,
        6.567734022431292e-24,
        0.0,
        -5.188311769185488e-33,
        -6.567734022431292e-24,
        1.2464756965637207,
        0.0,
        3.632158041000366e-08,
        3.3135599819544836e-10,
        -0.010383193381130695,
        1.0
      ],
      "name": "node_id36_7"
    },
    {
      "mesh": 1,
      "name": "Object_11"
    }
  ],
  "samplers": [
    {
      "magFilter": 9729,
      "minFilter": 9987,
      "wrapS": 10497,
      "wrapT": 10497
    }
  ],
  "scene": 0,
  "scenes": [
    {
      "name": "Sketchfab_Scene",
      "nodes": [
        0
      ]
    }
  ],
  "textures": [
    {
      "sampler": 0,
      "source": 0
    },
    {
      "sampler": 0,
      "source": 1
    },
    {
      "sampler": 0,
      "source": 2
    },
    {
      "sampler": 0,
      "source": 3
    }
  ]
}
